<?xml version="1.0" encoding="iso-8859-1"?>
<!-- Uploaded to: SVG Repo, www.svgrepo.com, Generator: SVG Repo Mixer Tools -->
<svg fill="#000000" height="800px" width="800px" version="1.1" id="Layer_1" xmlns="http://www.w3.org/2000/svg" xmlns:xlink="http://www.w3.org/1999/xlink" 
	 viewBox="0 0 503.98 503.98" xml:space="preserve">
<g>
	<g>
		<path d="M282,334.11h-84c-6.628,0-6,5.364-6,11.992s-2.628,8,4,8h88c6.628,0,8-1.372,8-8S288.628,334.11,282,334.11z"/>
	</g>
</g>
<g>
	<g>
		<path d="M436,211.878c-3.208-46.28-41.884-82.948-88.96-82.948c-7.04,0-14.004,0.832-20.82,2.488
			C307.66,82.834,260.592,49.87,207.748,49.87c-64.564,0-118.016,47.972-125.828,110.952c-45.636,8.764-80.056,49.464-80.056,96.812
			c0,52.968,37.444,96.14,87.104,100.42c0.344,0.028,0.688,0.044,1.032,0.044l62,0.004c6.628,0,12-5.372,12-12s-5.372-12-12-12H92
			c-36.908-3.452-66.144-36.236-66.144-76.472c0-38.424,29.964-71.056,68.208-74.296c6.004-0.508,10.704-5.392,10.976-11.412
			c2.504-54.988,47.616-98.06,102.7-98.06c46.252,0,87.04,31.144,99.192,75.728c0.9,3.3,3.164,6.056,6.224,7.584
			c3.064,1.532,6.624,1.668,9.8,0.412c7.756-3.092,15.856-4.66,24.08-4.66c35.936,0,65.176,29.24,65.176,65.176
			c0,1.776-0.132,3.516-0.268,5.26c-0.288,3.608,1.072,7.156,3.692,9.648c2.624,2.5,6.228,3.664,9.824,3.204
			c2.428-0.316,4.424-0.464,6.284-0.464c26.6,0,48.236,21.64,48.236,48.236c0,26.504-18.588,48.44-42.376,50.116H326
			c-6.628,0-12,5.372-12,12s5.372,12,12,12h112c0.248,0,0.496-0.008,0.74-0.024c36.584-2.264,65.24-34.812,65.24-74.092
			C503.98,245.586,473.86,214.086,436,211.878z"/>
	</g>
</g>
<g>
	<g>
		<path d="M372.476,273.61l-62.252-62.116c-2.252-2.248-5.252-3.448-8.5-3.504c-3.188,0.008-6.24,1.28-8.488,3.54l-61.748,62.116
			c-3.416,3.44-4.432,8.596-2.568,13.072c1.86,4.476,6.232,7.384,11.08,7.384h28V406.11c0,6.628,5.372,7.992,12,7.992h44
			c6.628,0,12-1.364,12-7.992V294.102h28c4.852,0,9.232-2.92,11.088-7.408C376.944,282.202,375.912,277.038,372.476,273.61z
			 M324,270.11c-6.628,0-12,5.372-12,12v112h-20v-112c0-6.628-5.372-12-12-12h-11.152l32.932-33.128l33.204,33.128H324z"/>
	</g>
</g>
<g>
	<g>
		<path d="M434.136,212.11c-3.208-46.28-41.884-82.948-88.96-82.948c-7.04,0-14.004,0.832-20.82,2.488
			c-18.56-48.584-65.628-81.548-118.472-81.548c-64.564,0-118.016,47.972-125.828,110.952C34.42,169.818,0,210.518,0,257.866
			c0,52.968,34.34,95.956,84,100.236c0.344,0.028,3.656,0,4,0h72l0.136-23.772H88.668c-36.908-3.452-64.676-36.232-64.676-76.468
			c0-38.424,29.964-71.056,68.208-74.296c6.004-0.508,10.704-5.392,10.976-11.412c2.504-54.988,47.616-98.06,102.7-98.06
			c46.252,0,87.04,31.144,99.192,75.728c0.9,3.3,3.164,6.056,6.224,7.584c3.064,1.532,6.624,1.668,9.8,0.412
			c7.756-3.092,15.856-4.66,24.08-4.66c35.936,0,65.176,29.24,65.176,65.176c0,1.776-0.132,3.516-0.268,5.26
			c-0.288,3.608,1.072,7.156,3.692,9.648c2.624,2.5,6.228,3.664,9.824,3.204c2.428-0.316,4.424-0.464,6.284-0.464
			c26.6,0,48.236,21.64,48.236,48.236c0,26.504-18.588,48.44-42.376,50.116H328.136c-6.628,0-12,5.372-12,12v48h-28v-48
			c0-6.628-5.372-12-12-12L188,334.102v24h76l0.136,48.232c0,6.628,5.236,11.768,11.864,11.768h52c6.628,0,12-5.372,12-12v-48h96
			c0.248,0,3.752,0.016,4,0c36.584-2.264,62.116-34.604,62.116-73.884C502.116,245.818,471.996,214.318,434.136,212.11z"/>
	</g>
</g>
<g>
	<g>
		<path d="M249.128,377.622c-1.832-4.54-6.232-7.512-11.128-7.512l-30-0.008v-112c0-6.628-3.372-11.992-10-11.992h-44
			c-6.628,0-10,5.364-10,11.992v112l-30,0.008c-4.884,0-9.28,2.96-11.12,7.488c-1.836,4.524-0.744,9.712,2.76,13.116l61.744,60
			c2.328,2.264,5.344,3.396,8.364,3.396c3,0,6.004-1.12,8.328-3.36l62.252-60C249.852,387.358,250.96,382.158,249.128,377.622z
			 M175.784,425.41l-32.212-31.3H154c6.628,0,10-5.38,10-12.008v-112h24v112c0,6.628,3.372,12.008,10,12.008h10.26L175.784,425.41z"
			/>
	</g>
</g>
</svg>